# xmcd
#
# Track frame offsets:
# 150
# 11970
# 23522
# 33865
# 46887
# 57702
# 73115
# 87354
# 98335
# 111985
# 122545
# 133022
#
# Disc length: 1953 seconds
#
#
# Revision: 1
# Processed by: cddbd v1.5.2PL0 Copyright (c) Steve Scherf et al.
# Submitted via: FreeRIP 2.945 
#
DISCID=9b079f0c
DTITLE=Chitãozinho and Xororó - 60 Dias Apaixonado
DYEAR=1979
DGENRE=Sertanejo
TTITLE0=Tudo Está Desarrumado
TTITLE1=Cama de Casal
TTITLE2=60 Dias Apaixonado
TTITLE3=Nosso Filho Com Quem Vai Ficar
TTITLE4=Tarde Demais
TTITLE5=Motivo de Saudade
TTITLE6=Ninguém Quis Dormir
TTITLE7=Noites do Passado
TTITLE8=O Direito de Amar
TTITLE9=Pensando em Voltar
TTITLE10=Amor Perigoso
TTITLE11=Chorando Espero
EXTD=
EXTT0=
EXTT1=
EXTT2=
EXTT3=
EXTT4=
EXTT5=
EXTT6=
EXTT7=
EXTT8=
EXTT9=
EXTT10=
EXTT11=
PLAYORDER=
